<svg xmlns="http://www.w3.org/2000/svg" viewBox="0 0 32 40" x="0px" y="0px"><g><path d="M30,8a4,4,0,0,0-3-3.86V3a1,1,0,0,0-2,0V4.14a4,4,0,0,0,0,7.72V29a1,1,0,0,0,2,0V11.86A4,4,0,0,0,30,8Zm-4,2a2,2,0,1,1,2-2A2,2,0,0,1,26,10ZM7,20.14V3A1,1,0,0,0,5,3V20.14a4,4,0,0,0,0,7.72V29a1,1,0,0,0,2,0V27.86a4,4,0,0,0,0-7.72ZM6,26a2,2,0,1,1,2-2A2,2,0,0,1,6,26ZM17,12.14V3a1,1,0,0,0-2,0v9.14a4,4,0,0,0,0,7.72V29a1,1,0,0,0,2,0V19.86a4,4,0,0,0,0-7.72ZM16,18a2,2,0,1,1,2-2A2,2,0,0,1,16,18Z"/></g><text x="0" y="47" fill="#000000" font-size="5px" font-weight="bold" font-family="'Helvetica Neue', Helvetica, Arial-Unicode, Arial, Sans-serif">Created by Parsiall</text><text x="0" y="52" fill="#000000" font-size="5px" font-weight="bold" font-family="'Helvetica Neue', Helvetica, Arial-Unicode, Arial, Sans-serif">from the Noun Project</text></svg>
