<svg xmlns="http://www.w3.org/2000/svg" viewBox="0 0 32 40" x="0px" y="0px"><g><path d="M24.81,12.86a9,9,0,1,0-17.61,0A9,9,0,1,0,16,28.48a9,9,0,1,0,8.81-15.62ZM9,11a7,7,0,1,1,13.89,1.2A9,9,0,0,0,16,13.52,9,9,0,0,0,9.11,12.2,7,7,0,0,1,9,11Zm9,10a7,7,0,0,1-2,4.89,6.9,6.9,0,0,1-1.89-6.09,8.89,8.89,0,0,0,3.78,0A7,7,0,0,1,18,21Zm-2-3a7,7,0,0,1-1.26-.12A7,7,0,0,1,16,16.11a7,7,0,0,1,1.26,1.77A7,7,0,0,1,16,18Zm-3.16-.76a7,7,0,0,1-3.09-3.12,6.89,6.89,0,0,1,4.67.77A9,9,0,0,0,12.84,17.24Zm4.76-2.34a6.89,6.89,0,0,1,4.67-.77,7,7,0,0,1-3.09,3.12A9,9,0,0,0,17.59,14.89ZM4,21a7,7,0,0,1,3.84-6.24,9,9,0,0,0,4.36,4.38,8.95,8.95,0,0,0,2.21,8A7,7,0,0,1,4,21Zm17,7a7,7,0,0,1-3.41-.89,8.95,8.95,0,0,0,2.21-8,9,9,0,0,0,4.36-4.38A7,7,0,0,1,21,28Z"/></g><text x="0" y="47" fill="#000000" font-size="5px" font-weight="bold" font-family="'Helvetica Neue', Helvetica, Arial-Unicode, Arial, Sans-serif">Created by Parsiall</text><text x="0" y="52" fill="#000000" font-size="5px" font-weight="bold" font-family="'Helvetica Neue', Helvetica, Arial-Unicode, Arial, Sans-serif">from the Noun Project</text></svg>
